<?xml version="1.0" standalone="no"?>
<!DOCTYPE svg PUBLIC "-//W3C//DTD SVG 20010904//EN"
 "http://www.w3.org/TR/2001/REC-SVG-20010904/DTD/svg10.dtd">
<svg version="1.0" xmlns="http://www.w3.org/2000/svg"
 width="175.000000pt" height="175.000000pt" viewBox="0 0 175.000000 175.000000"
 preserveAspectRatio="xMidYMid meet">
<metadata>
Created by potrace 1.14, written by Peter Selinger 2001-2017
</metadata>
<g transform="translate(0.000000,175.000000) scale(0.100000,-0.100000)"
fill="#000000" stroke="none">
<path d="M1468 1315 c-45 -63 -86 -115 -89 -115 -4 0 -22 17 -39 38 -99 113
-144 162 -150 162 -4 0 -40 -54 -80 -121 l-73 -121 -31 34 c-17 18 -67 73
-110 121 -43 49 -82 84 -86 80 -4 -4 -32 -70 -63 -146 l-55 -138 -108 81 c-59
44 -111 80 -114 80 -4 0 -28 -55 -55 -122 -26 -68 -49 -125 -51 -127 -4 -5
-36 19 -114 89 -72 65 -99 85 -104 78 -3 -2 292 -807 299 -815 10 -14 313 -21
375 -10 25 5 54 10 65 12 11 2 34 6 50 9 17 3 82 15 145 26 94 16 145 32 279
90 91 38 168 73 172 77 4 5 10 112 14 238 14 554 15 615 11 615 -3 0 -42 -52
-88 -115z"/>
</g>
</svg>
